<svg xmlns="http://www.w3.org/2000/svg" viewBox="0 0 32 32">
  <defs>
    <linearGradient id="g" x1="0%" y1="0%" x2="100%" y2="100%">
      <stop offset="0%" stop-color="#a855f7"/>
      <stop offset="50%" stop-color="#ec4899"/>
      <stop offset="100%" stop-color="#f59e0b"/>
    </linearGradient>
  </defs>
  <!-- Body -->
  <ellipse cx="16" cy="19" rx="11" ry="9" fill="url(#g)"/>
  <ellipse cx="16" cy="20" rx="9" ry="7.5" fill="#1e1e30"/>
  <!-- Left ear -->
  <polygon points="7,12 10,4 13,11" fill="#a855f7"/>
  <polygon points="8,11 10,6 12,11" fill="#ec4899" opacity=".7"/>
  <!-- Right ear -->
  <polygon points="25,12 22,4 19,11" fill="#a855f7"/>
  <polygon points="24,11 22,6 20,11" fill="#ec4899" opacity=".7"/>
  <!-- Eyes -->
  <circle cx="12" cy="17" r="3" fill="#f59e0b"/>
  <circle cx="20" cy="17" r="3" fill="#f59e0b"/>
  <!-- Pupils -->
  <ellipse cx="12" cy="17" rx="1.2" ry="2" fill="#111"/>
  <ellipse cx="20" cy="17" rx="1.2" ry="2" fill="#111"/>
  <!-- Nose -->
  <ellipse cx="16" cy="21" rx="1.5" ry="1" fill="#ec4899"/>
  <!-- Blush -->
  <ellipse cx="9.5" cy="20" rx="2.5" ry="1.2" fill="#ec4899" opacity=".3"/>
  <ellipse cx="22.5" cy="20" rx="2.5" ry="1.2" fill="#ec4899" opacity=".3"/>
  <!-- Beer mug -->
  <rect x="22" y="23" width="5" height="6" rx="1" fill="#f59e0b" opacity=".9"/>
  <rect x="21" y="22" width="7" height="2" rx="1" fill="#fbbf24" opacity=".7"/>
  <path d="M27 25 Q30 25 30 27 Q30 29 27 29" fill="none" stroke="#f59e0b" stroke-width="1.2"/>
</svg>
